<svg width="800" height="800" viewBox="0 0 800 800" fill="none" xmlns="http://www.w3.org/2000/svg">
<path fill-rule="evenodd" clip-rule="evenodd" d="M400 700L423.6 723.533C420.503 726.643 416.823 729.11 412.77 730.793C408.717 732.476 404.372 733.343 399.983 733.343C395.595 733.343 391.25 732.476 387.197 730.793C383.144 729.11 379.464 726.643 376.367 723.533L376.167 723.3L375.6 722.733L373.533 720.633C361.783 708.529 350.226 696.239 338.867 683.767C310.347 652.516 283.038 620.181 257 586.833C227.267 548.5 196.867 505.167 173.767 462.367C151.167 420.4 133.333 374.933 133.333 333.333C133.333 182.033 253.067 66.6667 400 66.6667C546.933 66.6667 666.667 182.033 666.667 333.333C666.667 374.933 648.833 420.4 626.233 462.333C603.133 505.2 572.767 548.5 543 586.833C506.579 633.488 467.679 678.152 426.467 720.633L424.4 722.733L423.833 723.3L423.633 723.5L400 700ZM400 433.333C426.522 433.333 451.957 422.798 470.711 404.044C489.464 385.29 500 359.855 500 333.333C500 306.812 489.464 281.376 470.711 262.623C451.957 243.869 426.522 233.333 400 233.333C373.479 233.333 348.043 243.869 329.289 262.623C310.536 281.376 300 306.812 300 333.333C300 359.855 310.536 385.29 329.289 404.044C348.043 422.798 373.479 433.333 400 433.333Z" fill="#E95916"/>
</svg>
